# xmcd
#
# Track frame offsets:
#	150
#	11858
#	40045
#	50179
#	77816
#	94017
#	105051
#	122082
#	135582
#	153506
#	167311
#	182911
#	202033
#	210834
#	225833
#
# Disc length: 3195 seconds
#
# Revision: 1
# Processed by: cddbd v1.5.2PL0 Copyright (c) Steve Scherf et al.
# Submitted via: audiograbber 1.83.01
#
DISCID=b40c790f
DTITLE=Cheryl Porter Quartet - The Best Of Classic Blues
DYEAR=1999
DGENRE=Blues
TTITLE0=Route 66
TTITLE1=Fine And Mellow
TTITLE2=Lookin' For My Man Blues
TTITLE3=God Bless The Child
TTITLE4=St. Louis Blues
TTITLE5=Deed I Do
TTITLE6=Gin House Blues
TTITLE7=Georgia On My MInd
TTITLE8=Cedar Hause Blues
TTITLE9=Willow Weep For Me
TTITLE10=Country Girl
TTITLE11=Black Coffee
TTITLE12=This Little Light Of Mine
TTITLE13=Send Me To The 'Lectric Chair
TTITLE14=Nobody Know When You're Down And Out
EXTD=
EXTT0=
EXTT1=
EXTT2=
EXTT3=
EXTT4=
EXTT5=
EXTT6=
EXTT7=
EXTT8=
EXTT9=
EXTT10=
EXTT11=
EXTT12=
EXTT13=
EXTT14=
PLAYORDER=
